# xmcd
#
# Track frame offsets: 
#        150
#        13470
#        28067
#        43218
#        56701
#        73571
#        91752
#        107683
#        122487
#        138210
#        153861
#        168358
#        184450
#        195950
#
# Disc length: 2831 seconds
#
# Revision: 11
# Processed by: cddbd v1.5.1PL2 Copyright (c) Steve Scherf et al.
# Submitted via: ExactAudioCopy v0.95b3
#
DISCID=ba0b0d0e
DTITLE=Various Artist - Under My Skin
DYEAR=2004
DGENRE=Rock
TTITLE0=Take Me Away
TTITLE1=Together
TTITLE2=Don't Tell Me
TTITLE3=He Wasn't
TTITLE4=How Does It Feel
TTITLE5=My Happy Ending
TTITLE6=Nobody's Home
TTITLE7=Forgotten
TTITLE8=Who Knows
TTITLE9=Fall To Pieces
TTITLE10=Freak Out
TTITLE11=Slipped Away
TTITLE12=I Always Get What I Want
TTITLE13=Nobody's Home (LIVE Acoustic)
EXTD=YEAR: 2004
EXTT0=
EXTT1=
EXTT2=
EXTT3=
EXTT4=
EXTT5=
EXTT6=
EXTT7=
EXTT8=
EXTT9=
EXTT10=
EXTT11=
EXTT12=
EXTT13=
PLAYORDER=
